HIERARCHY
ROOT Hips
{
  OFFSET 0 0 0
  CHANNELS 6 Xposition Yposition Zposition Zrotation Yrotation Xrotation
  JOINT LeftThigh
  {
    OFFSET 8.409438 0 -5.917753
    CHANNELS 3 Zrotation Yrotation Xrotation
    JOINT LeftLeg
    {
      OFFSET 0 0 -42.358652
      CHANNELS 3 Zrotation Yrotation Xrotation
      JOINT LeftFoot
      {
        OFFSET 0 0 -39.357303
        CHANNELS 3 Zrotation Yrotation Xrotation
      }
    }
  }
  JOINT RightThigh
  {
    OFFSET -8.409438 0 -5.917753
    CHANNELS 3 Zrotation Yrotation Xrotation
    JOINT RightLeg
    {
      OFFSET 0 0 -42.358652
      CHANNELS 3 Zrotation Yrotation Xrotation
      JOINT RightFoot
      {
        OFFSET 0 0 -39.357303
        CHANNELS 3 Zrotation Yrotation Xrotation
      }
    }
  }
  JOINT SpineLow
  {
    OFFSET 0 0 4.719101
    CHANNELS 3 Zrotation Yrotation Xrotation
    JOINT SpineMid
    {
      OFFSET 0 0 12.899191
      CHANNELS 3 Zrotation Yrotation Xrotation
      JOINT Chest
      {
        OFFSET 0 0 12.899191
        CHANNELS 3 Zrotation Yrotation Xrotation
        JOINT LeftShoulder
        {
          OFFSET 7.550562 1.41573 9.438202
          CHANNELS 3 Zrotation Yrotation Xrotation
          JOINT LeftArm
          {
            OFFSET 9.155056 0 4.247191
            CHANNELS 3 Zrotation Yrotation Xrotation
            JOINT LeftForearm
            {
              OFFSET 0 0 25.771955
              CHANNELS 3 Zrotation Yrotation Xrotation
              JOINT LeftHand
              {
                OFFSET 0 0 25.197169
                CHANNELS 3 Zrotation Yrotation Xrotation
              }
            }
          }
        }
        JOINT RightShoulder
        {
          OFFSET -7.550562 1.41573 9.438202
          CHANNELS 3 Zrotation Yrotation Xrotation
          JOINT RightArm
          {
            OFFSET -9.155056 0 4.247191
            CHANNELS 3 Zrotation Yrotation Xrotation
            JOINT RightForearm
            {
              OFFSET 0 0 -25.771955
              CHANNELS 3 Zrotation Yrotation Xrotation
              JOINT RightHand
              {
                OFFSET 0 0 -25.197169
                CHANNELS 3 Zrotation Yrotation Xrotation
              }
            }
          }
        }
        JOINT Neck
        {
          OFFSET 0 0 15.101124
          CHANNELS 3 Zrotation Yrotation Xrotation
          JOINT Head
          {
            OFFSET 0 0 11.325843
            CHANNELS 3 Zrotation Yrotation Xrotation
            End Site
            {
              OFFSET 0 0 14.157303
            }
          }
        }
      }
    }
  }
}
MOTION
Frames: 16
Frame Time: 0.0
0.0  93.25843  0.0  -2.09676  2.535605  -90.133878  19.612242  -15.975241  -4.65767  -9.111752  1.685856  11.058666  3.132704  -0.595785  2.523432  -26.638348  2.215526  -8.413602  -11.670289  8.181234  7.129495  3.653088  0.906728  0.823643  3.088927  -1.687178  0.329477  8.43288  -4.645085  0.684395  8.43288  -4.645085  0.684396  -4.246039  29.624683  -1.147382  -172.322819  32.678505  -174.360654  2.648307  22.950503  109.605596  32.646192  -2.176215  -11.601986  -7.955294  3.183856  24.627467  67.242545  50.963765  23.644088  -24.008947  41.89278  -51.394697  87.03527  -17.392793  3.712301  -18.406343  4.711444  0.932924  -13.804187  3.509274  0.842463  
0.0  93.25843  0.0  -2.149937  1.920749  -90.078668  19.856526  -16.032341  -4.690405  -8.915479  1.679726  11.19967  3.191895  -0.57583  2.541462  -26.608887  1.865207  -8.743853  -11.37996  8.51726  7.585938  3.792122  0.955888  0.796321  3.280203  -1.656975  0.31335  8.957557  -4.56202  0.630871  8.957557  -4.56202  0.630871  -4.016408  29.366963  -0.538722  -170.113718  32.020782  -174.712641  3.081685  25.274488  110.343406  30.001462  -6.237605  -12.727029  -7.879258  2.888286  25.130635  69.814051  53.303024  24.467244  -17.290665  40.465437  -41.757557  86.400048  -17.309987  2.670369  -18.705671  4.597533  1.09285  -14.029977  3.418514  0.96133  
0.0  93.25843  0.0  -2.126546  1.570693  -89.89145  19.661531  -15.905121  -4.897332  -8.586649  1.614354  11.466657  3.37248  -0.558308  2.640141  -26.838972  1.569205  -9.170129  -10.604116  8.866834  8.136374  3.66219  0.935056  0.711065  3.369474  -1.612506  0.255771  9.205662  -4.433367  0.473582  9.205661  -4.433367  0.473583  -3.544894  29.106454  0.208311  -167.893354  31.044662  -175.089337  3.721654  27.347256  111.382938  27.282032  -10.093867  -13.660699  -7.41914  2.478836  25.839506  73.329886  55.824307  26.066026  -10.897585  37.388724  -32.335636  85.596312  -17.13442  1.496397  -18.631514  4.602407  1.422252  -13.976901  3.412234  1.2081  
0.0  93.25843  0.0  -2.095215  0.907368  -89.804763  19.82247  -15.860588  -4.915214  -8.332523  1.597322  11.630499  3.442387  -0.543818  2.667629  -27.090237  1.260557  -9.583553  -10.043565  9.152619  8.59577  3.822676  0.971524  0.675278  3.477105  -1.606178  0.213151  9.503076  -4.410497  0.350841  9.503076  -4.410497  0.350841  -3.292714  29.159111  0.80652  -165.567439  29.905684  -175.58687  4.05498  29.469774  112.079942  24.201967  -13.477584  -13.694115  -6.779784  2.030491  26.569696  78.028193  58.447304  28.971753  -5.551675  32.919869  -23.337491  85.251643  -16.484945  -0.040009  -18.625675  4.80432  1.648933  -13.974135  3.556944  1.384302  
0.0  93.25843  0.0  -2.060363  0.27065  -89.684751  20.291329  -15.847667  -4.854848  -8.243566  1.598265  11.71723  3.480863  -0.533384  2.661722  -27.171117  0.994001  -9.936827  -9.262388  9.445788  9.080738  3.717842  0.972011  0.582577  3.512046  -1.625652  0.14919  9.603165  -4.454422  0.17102  9.603165  -4.454422  0.17102  -2.556301  29.232139  1.635719  -163.567107  28.430378  -176.218565  3.878741  31.8139  112.0029  20.909968  -16.230679  -12.428877  -5.890406  1.547402  27.445803  84.200627  60.97171  33.176758  -0.739609  27.417199  -14.640609  85.456266  -15.409392  -1.544029  -18.276707  5.235455  1.948612  -13.714834  3.87249  1.619195  
0.0  93.25843  0.0  -2.03353  -0.228071  -89.642846  20.249226  -15.862506  -4.845897  -7.977982  1.621327  11.898718  3.516886  -0.522921  2.668146  -27.57039  0.725967  -10.262415  -8.714578  9.673769  9.48885  3.893489  1.004138  0.547291  3.51752  -1.678894  0.106948  9.621637  -4.593462  0.047535  9.621636  -4.593462  0.047535  -1.553315  29.210032  2.735236  -162.216576  26.533024  -176.906963  3.181206  34.222606  111.326242  17.944538  -17.978486  -10.423251  -5.13433  1.120181  28.259983  90.810306  63.341055  37.865939  4.296664  21.400248  -6.318943  86.373489  -13.807798  -2.830757  -17.984437  5.786297  2.073268  -13.496664  4.2832  1.726274  
0.0  93.25843  0.0  -2.040908  -0.789515  -89.770752  20.751187  -16.052439  -4.518134  -8.069363  1.698725  11.869576  3.509988  -0.516626  2.631018  -27.848062  0.493987  -10.388887  -8.047143  9.906028  9.905251  3.855753  1.033474  0.449568  3.516239  -1.769091  0.100938  9.619743  -4.838536  0.018044  9.619743  -4.838536  0.018045  -0.408421  29.202771  3.689747  -161.645626  24.529373  -177.813931  2.041485  36.349161  110.201016  15.824876  -19.011166  -8.370539  -3.774371  0.382923  29.167598  95.679792  65.475054  42.501536  9.507703  15.71011  0.464023  86.869793  -11.88753  -3.78324  -17.581935  6.434525  2.073898  -13.194597  4.771022  1.741386  
0.0  93.25843  0.0  -2.067984  -1.198501  -89.791541  20.746069  -16.125344  -4.475858  -7.917788  1.715924  12.032868  3.513168  -0.506461  2.619217  -28.09862  0.253217  -10.570106  -7.602988  10.087918  10.275475  4.037602  1.059695  0.411737  3.595027  -1.833132  0.09392  9.836915  -5.011892  -0.016474  9.836914  -5.011892  -0.016474  0.343648  29.096029  4.431255  -161.824017  22.674588  -178.606278  0.853452  37.52558  108.610413  14.25144  -19.539711  -6.515599  -2.940424  -0.70991  29.430765  97.132988  66.438423  45.177993  13.526191  11.870872  4.861228  85.930491  -10.446071  -4.254746  -17.47157  6.857381  1.982479  -13.110433  5.091408  1.683676  
0.0  93.25843  0.0  -2.105789  -1.823219  -89.916875  21.502479  -16.341489  -4.203983  -8.219656  1.79444  11.955785  3.439147  -0.473413  2.554208  -27.984631  0.045967  -10.649012  -7.226889  10.226944  10.66542  4.104745  1.122124  0.351828  3.826525  -1.891769  0.11552  10.470104  -5.174328  0.015571  10.470103  -5.174328  0.015572  0.568671  29.26607  5.066879  -162.180208  21.245401  -178.897846  -0.077474  38.068159  106.835421  13.417857  -19.704117  -5.533962  -2.965787  -1.287167  29.030621  90.742259  67.131891  41.091805  16.274109  11.038475  6.678728  83.87393  -9.697429  -3.864437  -17.874405  7.029772  1.815585  -13.409989  5.224629  1.568188  
0.0  93.25843  0.0  -2.193283  -1.969606  -89.887864  21.389345  -16.427801  -4.305635  -8.195237  1.837871  12.13982  3.487281  -0.468442  2.554546  -28.080533  -0.187157  -10.816387  -7.008675  10.371871  11.022676  4.194797  1.146476  0.329992  4.028595  -1.946764  0.09989  11.025696  -5.320915  -0.052187  11.025697  -5.320915  -0.052187  0.640396  29.844999  5.90145  -162.361084  20.260258  -178.642148  -1.41468  39.352836  104.539971  13.563015  -20.064616  -6.200684  -3.877108  -1.244349  28.920968  80.455054  68.033059  32.022365  17.137165  11.488092  7.14713  81.506963  -9.121584  -1.663435  -18.432014  6.922151  1.754043  -13.827169  5.144353  1.525357  
0.0  93.25843  0.0  -2.397741  -1.711189  -89.837874  21.033656  -16.639813  -4.502936  -8.180642  1.921138  12.34293  3.518889  -0.467176  2.520723  -28.463694  -0.502917  -10.901583  -6.842868  10.48409  11.348385  4.235172  1.158762  0.294341  4.097672  -1.998394  0.058799  11.219244  -5.45431  -0.17875  11.219245  -5.45431  -0.17875  0.936513  30.642011  6.788718  -161.933869  19.559359  -178.01175  -3.685841  40.492288  102.172409  14.291581  -20.748471  -9.070769  -4.510743  -0.947174  29.189811  71.385537  67.99784  23.072564  15.543993  12.429359  6.192966  80.30816  -8.643529  1.286146  -18.851175  6.648888  1.826089  -14.142501  4.936  1.575824  
0.0  93.25843  0.0  -2.7194  -1.311597  -89.673146  20.688774  -16.906471  -4.922122  -8.141253  2.005743  12.554856  3.579789  -0.464642  2.523155  -28.860067  -0.924018  -10.961646  -6.794738  10.609586  11.569193  4.276819  1.177973  0.253355  4.128192  -2.041514  -0.042635  11.312231  -5.554255  -0.465623  11.312232  -5.554255  -0.465623  0.966399  31.404445  7.616306  -161.067835  19.166097  -177.393452  -6.15779  41.781504  100.13335  14.865951  -21.460679  -12.252274  -5.448042  -0.566297  29.529771  72.916646  67.500375  24.418955  11.261444  12.947923  3.354734  80.752433  -7.931343  3.165664  -19.31132  6.303701  2.06036  -14.4903  4.668301  1.745791  
0.0  93.25843  0.0  -2.984664  -1.573458  -89.689822  21.192433  -17.186325  -5.142118  -8.073721  2.050206  12.760029  3.904361  -0.459565  2.755832  -28.526449  -1.236821  -10.819084  -6.863689  10.746636  11.712659  4.326949  1.202401  0.22332  4.189568  -2.067857  -0.115102  11.487147  -5.612764  -0.673229  11.487147  -5.612764  -0.673229  0.690022  31.793463  7.759893  -159.620036  19.099969  -177.077121  -8.036914  43.255075  98.517308  15.330222  -22.889323  -13.795904  -6.092169  -0.131157  29.700075  80.48048  66.348419  30.858563  7.722438  13.348074  1.497108  81.152361  -7.370389  3.715276  -19.555244  6.093175  2.360938  -14.676385  4.49992  1.967154  
0.0  93.25843  0.0  -3.002682  -1.69731  -89.8622  21.689708  -17.292842  -5.087453  -8.161767  2.058733  12.815569  3.838848  -0.433501  2.740531  -28.165104  -1.234365  -10.594127  -6.946816  10.895521  11.837502  4.309962  1.244711  0.174782  4.113943  -2.080706  -0.143322  11.28274  -5.644014  -0.746081  11.282739  -5.644014  -0.746082  1.18285  31.996079  7.958773  -158.808799  19.138545  -176.961472  -8.530804  43.237928  98.066094  15.829888  -23.427904  -15.206914  -5.969921  0.131074  29.656475  86.436583  65.028597  35.583554  6.744488  14.140533  1.210298  79.317545  -6.850649  3.592143  -19.351401  6.246994  2.629594  -14.526355  4.607612  2.171433  
0.0  93.25843  0.0  -2.949671  -1.516049  -89.827906  22.201605  -17.15825  -5.068904  -8.930701  2.056958  12.375727  3.898422  -0.401349  2.818119  -28.166809  -1.302141  -10.621424  -7.456909  11.01175  11.86784  4.538985  1.366215  0.175297  3.88495  -2.087549  -0.152954  10.65644  -5.66451  -0.753979  10.65644  -5.664511  -0.75398  3.546309  31.828267  8.69224  -159.931826  19.089109  -177.006042  -7.84667  42.464795  98.660563  15.919015  -22.933852  -15.465902  -5.149808  0.056696  29.28495  87.477188  64.065197  36.126599  7.120551  15.441137  1.186547  76.156913  -6.29103  3.755455  -18.594465  6.640569  2.796952  -13.960974  4.900898  2.300836  
0.0  93.25843  0.0  -2.842021  -1.58341  -89.934742  22.777171  -17.099032  -4.922308  -9.323509  2.021181  12.204443  3.858623  -0.387279  2.820108  -27.869423  -1.28722  -10.560472  -7.466903  11.198603  12.082655  4.4988  1.436799  0.128544  3.689332  -2.107339  -0.125323  10.118742  -5.725585  -0.66481  10.118742  -5.725585  -0.66481  4.283399  32.141946  8.661188  -160.378021  19.001624  -176.886314  -7.294151  41.868235  99.259473  16.563615  -22.025736  -15.117641  -4.276345  -0.125981  28.956765  84.408171  63.808056  33.139204  6.76012  16.333374  0.552915  75.055819  -5.866212  4.600002  -17.782348  7.192908  2.972347  -13.354627  5.313772  2.439136  
